<svg width="30" height="30" viewBox="0 0 30 30" fill="none" xmlns="http://www.w3.org/2000/svg">
<path fill-rule="evenodd" clip-rule="evenodd" d="M5 15C5 11.2288 5 9.34315 6.17157 8.17157C7.34315 7 9.22876 7 13 7H14.5C18.2712 7 20.1569 7 21.3284 8.17157C22.2715 9.11466 22.4554 10.5204 22.4913 13H22.9999C23.9427 13 24.4141 13 24.707 13.2929C24.9999 13.5858 24.9999 14.0572 24.9999 15C24.9999 15.9428 24.9999 16.4142 24.707 16.7071C24.4141 17 23.9427 17 22.9999 17H22.4913C22.4554 19.4796 22.2715 20.8853 21.3284 21.8284C20.1569 23 18.2712 23 14.5 23H13C9.22876 23 7.34315 23 6.17157 21.8284C5 20.6569 5 18.7712 5 15ZM14.9801 11.4238C15.2983 11.689 15.3413 12.1619 15.0762 12.4801L13.6013 14.25H15.5C15.791 14.25 16.0558 14.4183 16.1792 14.6819C16.3026 14.9454 16.2625 15.2566 16.0762 15.4801L13.5762 18.4801C13.311 18.7983 12.8381 18.8413 12.5199 18.5762C12.2017 18.311 12.1587 17.8381 12.4238 17.5199L13.8987 15.75H12C11.709 15.75 11.4442 15.5817 11.3208 15.3181C11.1974 15.0546 11.2375 14.7434 11.4238 14.5199L13.9238 11.5199C14.189 11.2017 14.6619 11.1587 14.9801 11.4238Z" fill="#7856ff"/>
</svg>
